<svg xmlns="http://www.w3.org/2000/svg" xmlns:xlink="http://www.w3.org/1999/xlink" width="500" zoomAndPan="magnify" viewBox="0 0 375 374.999991" height="500" preserveAspectRatio="xMidYMid meet" version="1.0"><defs><g/><clipPath id="52b824c349"><path d="M 102.65625 91.144531 L 273.40625 91.144531 L 273.40625 240.648438 L 102.65625 240.648438 Z M 102.65625 91.144531 " clip-rule="nonzero"/></clipPath><clipPath id="8d74c8616b"><path d="M 95.65625 191 L 175 191 L 175 240 L 95.65625 240 Z M 95.65625 191 " clip-rule="nonzero"/></clipPath></defs><g clip-path="url(#52b824c349)"><path fill="#2e2d2d" d="M 273.128906 162.433594 C 272.582031 159.957031 271.277344 157.765625 269.351562 156.085938 L 200.089844 95.667969 C 196.746094 92.75 192.46875 91.144531 188.046875 91.144531 C 183.625 91.144531 179.347656 92.75 176.003906 95.667969 L 106.742188 156.085938 C 104.816406 157.765625 103.511719 159.957031 102.964844 162.433594 C 102.46875 164.675781 102.632812 167.003906 103.445312 169.167969 C 104.246094 171.316406 105.636719 173.171875 107.464844 174.527344 C 109.492188 176.03125 111.910156 176.828125 114.453125 176.828125 L 121.894531 176.828125 L 121.894531 185.527344 C 124.867188 184.238281 127.9375 183.199219 131.078125 182.421875 L 131.078125 170.261719 C 131.078125 168.808594 129.921875 167.632812 128.496094 167.632812 L 114.453125 167.632812 C 112.058594 167.632812 110.957031 164.601562 112.773438 163.015625 L 182.035156 102.597656 C 183.765625 101.089844 185.90625 100.335938 188.046875 100.335938 C 190.1875 100.335938 192.328125 101.089844 194.058594 102.597656 L 263.320312 163.015625 C 265.140625 164.601562 264.035156 167.632812 261.640625 167.632812 L 247.597656 167.632812 C 246.171875 167.632812 245.015625 168.808594 245.015625 170.261719 L 245.015625 228.832031 C 245.015625 230.28125 243.863281 231.457031 242.4375 231.457031 L 202.347656 231.457031 C 200.617188 234.875 198.34375 237.976562 195.648438 240.648438 L 242.4375 240.648438 C 248.921875 240.648438 254.199219 235.347656 254.199219 228.832031 L 254.199219 176.828125 L 261.640625 176.828125 C 264.1875 176.828125 266.601562 176.03125 268.628906 174.527344 C 270.457031 173.171875 271.847656 171.316406 272.652344 169.167969 C 273.460938 167.003906 273.625 164.675781 273.128906 162.433594 " fill-opacity="1" fill-rule="nonzero"/></g><path fill="#3eb83c" d="M 170.785156 240.003906 L 167.421875 240.003906 L 167.421875 231.089844 C 167.421875 217.554688 178.382812 206.582031 191.90625 206.582031 L 195.269531 206.582031 L 195.269531 215.496094 C 195.269531 229.03125 184.308594 240.003906 170.785156 240.003906 " fill-opacity="1" fill-rule="nonzero"/><g clip-path="url(#8d74c8616b)"><path fill="#299640" d="M 101.257812 233.257812 L 95.65625 230.023438 L 104.21875 215.179688 C 117.21875 192.640625 146.007812 184.917969 168.523438 197.929688 L 174.125 201.167969 L 165.566406 216.011719 C 152.566406 238.550781 123.773438 246.273438 101.257812 233.257812 " fill-opacity="1" fill-rule="nonzero"/></g><path fill="#7ecb29" d="M 203.464844 198.496094 L 200.101562 198.496094 L 200.101562 189.578125 C 200.101562 176.042969 211.0625 165.070312 224.585938 165.070312 L 227.949219 165.070312 L 227.949219 173.984375 C 227.949219 187.519531 216.988281 198.496094 203.464844 198.496094 " fill-opacity="1" fill-rule="nonzero"/><path fill="#3eb83c" d="M 190.382812 198.496094 L 195.269531 198.496094 L 195.269531 185.542969 C 195.269531 165.878906 179.34375 149.9375 159.699219 149.9375 L 154.8125 149.9375 L 154.8125 162.886719 C 154.8125 182.554688 170.738281 198.496094 190.382812 198.496094 " fill-opacity="1" fill-rule="nonzero"/><g fill="#7ecb29" fill-opacity="1"><g transform="translate(135.392296, 279.378498)"><g><path d="M 8.046875 -9.25 L 14.859375 -9.25 L 14.859375 -0.734375 C 13.015625 -0.0976562 10.984375 0.21875 8.765625 0.21875 C 6.328125 0.21875 4.441406 -0.484375 3.109375 -1.890625 C 1.785156 -3.304688 1.125 -5.320312 1.125 -7.9375 C 1.125 -10.488281 1.847656 -12.472656 3.296875 -13.890625 C 4.753906 -15.304688 6.796875 -16.015625 9.421875 -16.015625 C 10.410156 -16.015625 11.347656 -15.921875 12.234375 -15.734375 C 13.117188 -15.546875 13.890625 -15.3125 14.546875 -15.03125 L 13.1875 -11.671875 C 12.050781 -12.234375 10.800781 -12.515625 9.4375 -12.515625 C 8.195312 -12.515625 7.234375 -12.109375 6.546875 -11.296875 C 5.867188 -10.492188 5.53125 -9.335938 5.53125 -7.828125 C 5.53125 -6.359375 5.835938 -5.234375 6.453125 -4.453125 C 7.066406 -3.679688 7.957031 -3.296875 9.125 -3.296875 C 9.75 -3.296875 10.332031 -3.359375 10.875 -3.484375 L 10.875 -5.953125 L 8.046875 -5.953125 Z M 8.046875 -9.25 "/></g></g></g><g fill="#7ecb29" fill-opacity="1"><g transform="translate(151.761306, 279.378498)"><g><path d="M 9.4375 0 L 8.625 -1.625 L 8.546875 -1.625 C 7.972656 -0.914062 7.390625 -0.429688 6.796875 -0.171875 C 6.210938 0.0859375 5.453125 0.21875 4.515625 0.21875 C 3.359375 0.21875 2.445312 -0.125 1.78125 -0.8125 C 1.125 -1.507812 0.796875 -2.484375 0.796875 -3.734375 C 0.796875 -5.035156 1.25 -6.003906 2.15625 -6.640625 C 3.0625 -7.285156 4.378906 -7.644531 6.109375 -7.71875 L 8.140625 -7.796875 L 8.140625 -7.96875 C 8.140625 -8.96875 7.644531 -9.46875 6.65625 -9.46875 C 5.757812 -9.46875 4.625 -9.164062 3.25 -8.5625 L 2.03125 -11.359375 C 3.457031 -12.085938 5.257812 -12.453125 7.4375 -12.453125 C 9 -12.453125 10.210938 -12.0625 11.078125 -11.28125 C 11.941406 -10.507812 12.375 -9.425781 12.375 -8.03125 L 12.375 0 Z M 6.3125 -2.765625 C 6.820312 -2.765625 7.257812 -2.925781 7.625 -3.25 C 7.988281 -3.570312 8.171875 -3.992188 8.171875 -4.515625 L 8.171875 -5.46875 L 7.1875 -5.421875 C 5.800781 -5.367188 5.109375 -4.859375 5.109375 -3.890625 C 5.109375 -3.140625 5.507812 -2.765625 6.3125 -2.765625 Z M 6.3125 -2.765625 "/></g></g></g><g fill="#7ecb29" fill-opacity="1"><g transform="translate(165.538916, 279.378498)"><g><path d="M 8.84375 -12.453125 C 9.21875 -12.453125 9.566406 -12.425781 9.890625 -12.375 L 10.140625 -12.328125 L 9.75 -8.34375 C 9.40625 -8.425781 8.925781 -8.46875 8.3125 -8.46875 C 7.394531 -8.46875 6.726562 -8.253906 6.3125 -7.828125 C 5.894531 -7.410156 5.6875 -6.804688 5.6875 -6.015625 L 5.6875 0 L 1.453125 0 L 1.453125 -12.234375 L 4.609375 -12.234375 L 5.265625 -10.28125 L 5.46875 -10.28125 C 5.820312 -10.925781 6.3125 -11.445312 6.9375 -11.84375 C 7.570312 -12.25 8.207031 -12.453125 8.84375 -12.453125 Z M 8.84375 -12.453125 "/></g></g></g><g fill="#7ecb29" fill-opacity="1"><g transform="translate(175.915319, 279.378498)"><g><path d="M 5.265625 0.21875 C 4.390625 0.21875 3.625 -0.03125 2.96875 -0.53125 C 2.320312 -1.03125 1.816406 -1.757812 1.453125 -2.71875 C 1.097656 -3.6875 0.921875 -4.816406 0.921875 -6.109375 C 0.921875 -8.085938 1.320312 -9.640625 2.125 -10.765625 C 2.925781 -11.890625 4.023438 -12.453125 5.421875 -12.453125 C 6.109375 -12.453125 6.707031 -12.316406 7.21875 -12.046875 C 7.738281 -11.773438 8.207031 -11.3125 8.625 -10.65625 L 8.71875 -10.65625 C 8.582031 -11.613281 8.515625 -12.570312 8.515625 -13.53125 L 8.515625 -16.8125 L 12.765625 -16.8125 L 12.765625 0 L 9.578125 0 L 8.671875 -1.546875 L 8.515625 -1.546875 C 7.785156 -0.367188 6.703125 0.21875 5.265625 0.21875 Z M 6.984375 -3.125 C 7.660156 -3.125 8.140625 -3.332031 8.421875 -3.75 C 8.703125 -4.175781 8.851562 -4.832031 8.875 -5.71875 L 8.875 -6.0625 C 8.875 -7.144531 8.71875 -7.910156 8.40625 -8.359375 C 8.09375 -8.816406 7.609375 -9.046875 6.953125 -9.046875 C 6.390625 -9.046875 5.957031 -8.785156 5.65625 -8.265625 C 5.351562 -7.742188 5.203125 -7 5.203125 -6.03125 C 5.203125 -5.082031 5.351562 -4.359375 5.65625 -3.859375 C 5.96875 -3.367188 6.410156 -3.125 6.984375 -3.125 Z M 6.984375 -3.125 "/></g></g></g><g fill="#299640" fill-opacity="1"><g transform="translate(190.142292, 279.378498)"><g><path d="M 7.375 0.21875 C 5.332031 0.21875 3.742188 -0.320312 2.609375 -1.40625 C 1.484375 -2.488281 0.921875 -4.03125 0.921875 -6.03125 C 0.921875 -8.101562 1.441406 -9.691406 2.484375 -10.796875 C 3.535156 -11.898438 5.03125 -12.453125 6.96875 -12.453125 C 8.8125 -12.453125 10.234375 -11.972656 11.234375 -11.015625 C 12.242188 -10.054688 12.75 -8.671875 12.75 -6.859375 L 12.75 -4.984375 L 5.203125 -4.984375 C 5.222656 -4.296875 5.46875 -3.753906 5.9375 -3.359375 C 6.414062 -2.972656 7.0625 -2.78125 7.875 -2.78125 C 8.613281 -2.78125 9.296875 -2.847656 9.921875 -2.984375 C 10.546875 -3.128906 11.222656 -3.375 11.953125 -3.71875 L 11.953125 -0.6875 C 11.285156 -0.34375 10.597656 -0.109375 9.890625 0.015625 C 9.191406 0.148438 8.351562 0.21875 7.375 0.21875 Z M 7.125 -9.578125 C 6.625 -9.578125 6.207031 -9.421875 5.875 -9.109375 C 5.539062 -8.796875 5.34375 -8.304688 5.28125 -7.640625 L 8.90625 -7.640625 C 8.894531 -8.234375 8.726562 -8.703125 8.40625 -9.046875 C 8.082031 -9.398438 7.65625 -9.578125 7.125 -9.578125 Z M 7.125 -9.578125 "/></g></g></g><g fill="#299640" fill-opacity="1"><g transform="translate(203.811927, 279.378498)"><g><path d="M 9.1875 0 L 9.1875 -6.671875 C 9.1875 -7.484375 9.066406 -8.097656 8.828125 -8.515625 C 8.597656 -8.929688 8.222656 -9.140625 7.703125 -9.140625 C 6.992188 -9.140625 6.476562 -8.851562 6.15625 -8.28125 C 5.84375 -7.71875 5.6875 -6.742188 5.6875 -5.359375 L 5.6875 0 L 1.453125 0 L 1.453125 -12.234375 L 4.640625 -12.234375 L 5.171875 -10.734375 L 5.421875 -10.734375 C 5.785156 -11.304688 6.285156 -11.734375 6.921875 -12.015625 C 7.554688 -12.304688 8.289062 -12.453125 9.125 -12.453125 C 10.476562 -12.453125 11.53125 -12.054688 12.28125 -11.265625 C 13.03125 -10.484375 13.40625 -9.382812 13.40625 -7.96875 L 13.40625 0 Z M 9.1875 0 "/></g></g></g><g fill="#299640" fill-opacity="1"><g transform="translate(218.626097, 279.378498)"><g><path d="M 5.703125 0 L 1.484375 0 L 1.484375 -12.234375 L 5.703125 -12.234375 Z M 1.375 -15.28125 C 1.375 -15.914062 1.550781 -16.390625 1.90625 -16.703125 C 2.257812 -17.015625 2.828125 -17.171875 3.609375 -17.171875 C 4.390625 -17.171875 4.957031 -17.007812 5.3125 -16.6875 C 5.675781 -16.375 5.859375 -15.90625 5.859375 -15.28125 C 5.859375 -14.039062 5.109375 -13.421875 3.609375 -13.421875 C 2.117188 -13.421875 1.375 -14.039062 1.375 -15.28125 Z M 1.375 -15.28125 "/></g></g></g><g fill="#299640" fill-opacity="1"><g transform="translate(225.817232, 279.378498)"><g><path d="M 9.4375 0 L 8.625 -1.625 L 8.546875 -1.625 C 7.972656 -0.914062 7.390625 -0.429688 6.796875 -0.171875 C 6.210938 0.0859375 5.453125 0.21875 4.515625 0.21875 C 3.359375 0.21875 2.445312 -0.125 1.78125 -0.8125 C 1.125 -1.507812 0.796875 -2.484375 0.796875 -3.734375 C 0.796875 -5.035156 1.25 -6.003906 2.15625 -6.640625 C 3.0625 -7.285156 4.378906 -7.644531 6.109375 -7.71875 L 8.140625 -7.796875 L 8.140625 -7.96875 C 8.140625 -8.96875 7.644531 -9.46875 6.65625 -9.46875 C 5.757812 -9.46875 4.625 -9.164062 3.25 -8.5625 L 2.03125 -11.359375 C 3.457031 -12.085938 5.257812 -12.453125 7.4375 -12.453125 C 9 -12.453125 10.210938 -12.0625 11.078125 -11.28125 C 11.941406 -10.507812 12.375 -9.425781 12.375 -8.03125 L 12.375 0 Z M 6.3125 -2.765625 C 6.820312 -2.765625 7.257812 -2.925781 7.625 -3.25 C 7.988281 -3.570312 8.171875 -3.992188 8.171875 -4.515625 L 8.171875 -5.46875 L 7.1875 -5.421875 C 5.800781 -5.367188 5.109375 -4.859375 5.109375 -3.890625 C 5.109375 -3.140625 5.507812 -2.765625 6.3125 -2.765625 Z M 6.3125 -2.765625 "/></g></g></g></svg>